<svg width="32" height="32" viewBox="0 0 32 32" fill="none" xmlns="http://www.w3.org/2000/svg">
<path d="M15.9993 2.66666C14.2484 2.66666 12.5146 3.01154 10.8969 3.6816C9.27923 4.35167 7.80937 5.33379 6.57126 6.57191C4.07077 9.07239 2.66602 12.4638 2.66602 16C2.66602 21.8933 6.49268 26.8933 11.786 28.6667C12.4527 28.7733 12.666 28.36 12.666 28V25.7467C8.97268 26.5467 8.18602 23.96 8.18602 23.96C7.57268 22.4133 6.70602 22 6.70602 22C5.49268 21.1733 6.79935 21.2 6.79935 21.2C8.13268 21.2933 8.83935 22.5733 8.83935 22.5733C9.99935 24.6 11.9593 24 12.7193 23.68C12.8393 22.8133 13.186 22.2267 13.5593 21.8933C10.5993 21.56 7.49268 20.4133 7.49268 15.3333C7.49268 13.8533 7.99935 12.6667 8.86602 11.72C8.73268 11.3867 8.26602 10 8.99935 8.2C8.99935 8.2 10.1193 7.84 12.666 9.56C13.7193 9.26666 14.866 9.12 15.9993 9.12C17.1327 9.12 18.2793 9.26666 19.3327 9.56C21.8793 7.84 22.9993 8.2 22.9993 8.2C23.7327 10 23.266 11.3867 23.1327 11.72C23.9993 12.6667 24.506 13.8533 24.506 15.3333C24.506 20.4267 21.386 21.5467 18.4127 21.88C18.8927 22.2933 19.3327 23.1067 19.3327 24.3467V28C19.3327 28.36 19.546 28.7867 20.226 28.6667C25.5193 26.88 29.3327 21.8933 29.3327 16C29.3327 14.249 28.9878 12.5152 28.3177 10.8976C27.6477 9.27988 26.6656 7.81002 25.4274 6.57191C24.1893 5.33379 22.7195 4.35167 21.1018 3.6816C19.4841 3.01154 17.7503 2.66666 15.9993 2.66666Z" fill="white"/>
</svg>
