<svg width="100%" height="100%" viewBox="0 0 80 80" fill="none" xmlns="http://www.w3.org/2000/svg">
<path fill-rule="evenodd" clip-rule="evenodd" d="M25 7C15.0589 7 7 15.0589 7 25V55C7 64.9411 15.0589 73 25 73H55C64.9411 73 73 64.9411 73 55V25C73 15.0589 64.9411 7 55 7H25ZM43.4553 55.7122C47.6968 57.7041 52.0511 58.7 56.5183 58.7C57.1417 58.7 57.6611 58.4922 58.0767 58.0767C58.4922 57.6611 58.7 57.1417 58.7 56.5183V48.1033C58.7 47.6185 58.5442 47.194 58.2325 46.8297C57.9208 46.4667 57.5226 46.2333 57.0378 46.1294L49.8694 44.675C49.3846 44.6057 48.8915 44.6487 48.3901 44.8038C47.8872 44.9604 47.48 45.1944 47.1683 45.5061L42.2856 50.3889C39.6537 48.7959 37.2469 46.9086 35.0653 44.7269C32.8836 42.5453 31.0656 40.2078 29.6111 37.7144L34.5978 32.6239C34.9094 32.3122 35.1089 31.9569 35.1962 31.558C35.2821 31.1604 35.2904 30.7193 35.2211 30.2344L33.8706 22.9622C33.8013 22.4774 33.5762 22.0792 33.1953 21.7675C32.8144 21.4558 32.3815 21.3 31.8967 21.3H23.4817C22.8583 21.3 22.3389 21.5078 21.9233 21.9233C21.5078 22.3389 21.3 22.8583 21.3 23.4817C21.3 27.9489 22.2959 32.3032 24.2878 36.5447C26.2784 40.7875 28.9102 44.5448 32.1834 47.8166C35.4552 51.0898 39.2125 53.7216 43.4553 55.7122Z" fill="#D9D9D9"/>
</svg>
