<svg width="100%" height="100%" viewBox="0 0 80 80" fill="none" xmlns="http://www.w3.org/2000/svg">
<path d="M39.9994 6.66602C35.622 6.66602 31.2874 7.52821 27.2432 9.20337C23.199 10.8785 19.5244 13.3338 16.4291 16.4291C10.1779 22.6803 6.66602 31.1588 6.66602 39.9994C6.66602 54.7327 16.2327 67.2327 29.466 71.666C31.1327 71.9327 31.666 70.8994 31.666 69.9994V64.366C22.4327 66.366 20.466 59.8994 20.466 59.8994C18.9327 56.0327 16.766 54.9994 16.766 54.9994C13.7327 52.9327 16.9993 52.9994 16.9993 52.9994C20.3327 53.2327 22.0993 56.4327 22.0993 56.4327C24.9993 61.4994 29.8993 59.9994 31.7994 59.1994C32.0993 57.0327 32.966 55.566 33.8994 54.7327C26.4993 53.8994 18.7327 51.0327 18.7327 38.3327C18.7327 34.6327 19.9993 31.666 22.166 29.2994C21.8327 28.466 20.666 24.9994 22.4993 20.4994C22.4993 20.4994 25.2994 19.5994 31.666 23.8994C34.2994 23.166 37.166 22.7994 39.9994 22.7994C42.8327 22.7994 45.6994 23.166 48.3327 23.8994C54.6994 19.5994 57.4994 20.4994 57.4994 20.4994C59.3327 24.9994 58.166 28.466 57.8327 29.2994C59.9994 31.666 61.266 34.6327 61.266 38.3327C61.266 51.066 53.466 53.866 46.0327 54.6994C47.2327 55.7327 48.3327 57.766 48.3327 60.866V69.9994C48.3327 70.8994 48.866 71.966 50.566 71.666C63.7994 67.1994 73.3327 54.7327 73.3327 39.9994C73.3327 35.622 72.4705 31.2874 70.7953 27.2432C69.1202 23.1991 66.6649 19.5244 63.5696 16.4291C60.4743 13.3338 56.7997 10.8785 52.7555 9.20337C48.7113 7.52821 44.3767 6.66602 39.9994 6.66602Z" fill="white"/>
</svg>
