<svg width="32" height="32" viewBox="0 0 32 32" fill="none" xmlns="http://www.w3.org/2000/svg">
<path fill-rule="evenodd" clip-rule="evenodd" d="M16 2C8.26801 2 2 8.26801 2 16C2 23.732 8.26801 30 16 30C23.732 30 30 23.732 30 16C30 8.26801 23.732 2 16 2ZM17.3069 21.9407C18.9106 22.6939 20.5571 23.0705 22.2462 23.0705C22.4819 23.0705 22.6783 22.9919 22.8354 22.8348C22.9925 22.6777 23.0711 22.4813 23.0711 22.2456V19.0638C23.0711 18.8804 23.0122 18.7199 22.8943 18.5822C22.7765 18.4449 22.6259 18.3567 22.4426 18.3174L19.7322 17.7675C19.5488 17.7413 19.3624 17.7575 19.1728 17.8162C18.9827 17.8754 18.8287 17.9639 18.7108 18.0817L16.8646 19.928C15.8695 19.3256 14.9594 18.612 14.1345 17.7871C13.3096 16.9622 12.6222 16.0783 12.0722 15.1356L13.9577 13.2108C14.0756 13.0929 14.151 12.9586 14.184 12.8078C14.2165 12.6574 14.2196 12.4906 14.1934 12.3073L13.6828 9.55758C13.6566 9.37427 13.5715 9.22369 13.4274 9.10584C13.2834 8.988 13.1197 8.92908 12.9364 8.92908H9.7546C9.51891 8.92908 9.3225 9.00764 9.16538 9.16477C9.00825 9.32189 8.92969 9.5183 8.92969 9.75399C8.92969 11.4431 9.30627 13.0895 10.0594 14.6933C10.8121 16.2975 11.8072 17.7182 13.0448 18.9553C14.282 20.193 15.7026 21.1881 17.3069 21.9407Z" fill="white"/>
</svg>
