<svg width="32" height="32" viewBox="0 0 32 32" fill="none" xmlns="http://www.w3.org/2000/svg">
<path d="M16 2C8.26792 2 2 8.26792 2 16C2 23.7321 8.26792 30 16 30C23.7321 30 30 23.7321 30 16C30 8.26792 23.7321 2 16 2ZM12.5729 21.8027H9.73792V12.6794H12.5729V21.8027ZM11.1379 11.5594C10.2425 11.5594 9.66354 10.925 9.66354 10.1404C9.66354 9.33979 10.26 8.72438 11.1744 8.72438C12.0888 8.72438 12.6488 9.33979 12.6663 10.1404C12.6663 10.925 12.0888 11.5594 11.1379 11.5594ZM22.9271 21.8027H20.0921V16.7467C20.0921 15.5698 19.6808 14.7706 18.6556 14.7706C17.8725 14.7706 17.4073 15.3117 17.2017 15.8323C17.1258 16.0175 17.1069 16.28 17.1069 16.541V21.8013H14.2704V15.5888C14.2704 14.4498 14.234 13.4975 14.196 12.6779H16.6592L16.789 13.9452H16.8458C17.2192 13.3502 18.1335 12.4723 19.6633 12.4723C21.5285 12.4723 22.9271 13.7221 22.9271 16.4083V21.8027Z" fill="white"/>
</svg>
