<svg width="100%" height="100%" viewBox="0 0 80 80" fill="none" xmlns="http://www.w3.org/2000/svg">
<path fill-rule="evenodd" clip-rule="evenodd" d="M56.2494 23.7498C58.1938 25.6943 60.5549 26.6665 63.3327 26.6665C66.1105 26.6665 68.4716 25.6943 70.416 23.7498C72.3605 21.8054 73.3327 19.4443 73.3327 16.6665C73.3327 13.8887 72.3605 11.5276 70.416 9.58317C68.4716 7.63873 66.1105 6.6665 63.3327 6.6665C60.5549 6.6665 58.1938 7.63873 56.2494 9.58317C54.3049 11.5276 53.3327 13.8887 53.3327 16.6665C53.3327 19.4443 54.3049 21.8054 56.2494 23.7498ZM8.62602 64.7098C9.93046 66.0143 11.4993 66.6665 13.3327 66.6665H66.666C68.4994 66.6665 70.0694 66.0143 71.376 64.7098C72.6805 63.4032 73.3327 61.8332 73.3327 59.9998V29.9998C71.8882 31.111 70.3049 31.9443 68.5827 32.4998C66.8605 33.0554 65.1105 33.3332 63.3327 33.3332C62.3327 33.3332 61.3605 33.2498 60.416 33.0832C59.4716 32.9165 58.5271 32.6665 57.5827 32.3332L40.4023 43.0811C40.1558 43.2353 39.8429 43.2354 39.5963 43.0813L13.6899 26.8898C13.4677 26.7509 13.3327 26.5073 13.3327 26.2452V21.3713C13.3327 20.7743 13.9894 20.4103 14.4957 20.7267L39.5948 36.4137C39.8422 36.5683 40.1562 36.5677 40.4029 36.4122L52.166 28.9998C50.8882 27.8332 49.8049 26.4854 48.916 24.9565C48.0271 23.4298 47.3882 21.7776 46.9994 19.9998C46.7771 18.8887 46.666 17.7776 46.666 16.6665C46.666 15.5554 46.7771 14.4443 46.9994 13.3332H13.3327C11.4993 13.3332 9.93046 13.9865 8.62602 15.2932C7.31935 16.5976 6.66602 18.1665 6.66602 19.9998V59.9998C6.66602 61.8332 7.31935 63.4032 8.62602 64.7098ZM61.1284 22.0889C61.9026 22.3628 62.7798 22.4997 63.7602 22.4997C64.2653 22.4997 64.7391 22.4659 65.1815 22.3982C65.6268 22.3335 66.0184 22.2458 66.3561 22.135C66.6969 22.0273 66.9614 21.9089 67.1497 21.7796L66.8207 20.8271C66.689 20.4455 66.2554 20.2541 65.8629 20.3487C65.582 20.4194 65.2741 20.4748 64.9394 20.5148C64.6046 20.5579 64.2594 20.5795 63.9037 20.5795C63.1983 20.5795 62.5721 20.4872 62.0251 20.3025C61.4811 20.121 61.0223 19.8517 60.6487 19.4947C60.278 19.1378 59.9956 18.6946 59.8013 18.1653C59.61 17.636 59.5129 17.0252 59.5099 16.3328C59.5129 15.745 59.5995 15.1865 59.7699 14.6572C59.9433 14.1248 60.2093 13.6525 60.568 13.2401C60.9267 12.8247 61.384 12.4985 61.9399 12.2615C62.4989 12.0215 63.1654 11.9015 63.9395 11.9015C64.2773 11.9015 64.636 11.9261 65.0156 11.9753C65.3952 12.0215 65.7643 12.1169 66.123 12.2615C66.4847 12.4031 66.812 12.6154 67.1049 12.8985C67.3978 13.1786 67.6309 13.5509 67.8043 14.0156C67.9806 14.4772 68.0673 15.0526 68.0643 15.7419C68.0673 16.2774 68.03 16.719 67.9522 17.0667C67.8775 17.4114 67.7774 17.6683 67.6519 17.8376C67.5293 18.0038 67.3978 18.0869 67.2573 18.0869C67.1826 18.0869 67.1168 18.0561 67.06 17.9945C67.0062 17.933 66.9763 17.8099 66.9704 17.6253V13.7504C66.9704 13.2799 66.589 12.8985 66.1185 12.8985H65.7836C65.4981 12.8985 65.2667 13.13 65.2667 13.4155H65.1949C65.1381 13.2801 64.9902 13.1539 64.7511 13.037C64.5119 12.917 64.222 12.8324 63.8813 12.7831C63.5405 12.7308 63.1893 12.7385 62.8276 12.8062C62.5527 12.8554 62.2642 12.9555 61.9623 13.1062C61.6634 13.257 61.384 13.4724 61.1239 13.7525C60.8669 14.0325 60.6562 14.3879 60.4918 14.8188C60.3304 15.2496 60.2482 15.7727 60.2452 16.3882C60.2482 17.0006 60.3318 17.5252 60.4962 17.9622C60.6606 18.3961 60.8788 18.7516 61.1508 19.0285C61.4258 19.3055 61.7277 19.5132 62.0565 19.6517C62.3853 19.7901 62.7141 19.8717 63.0429 19.8963C63.3806 19.9209 63.7199 19.8978 64.0606 19.8271C64.4013 19.7563 64.6973 19.6501 64.9483 19.5086C65.1994 19.367 65.3593 19.2008 65.4281 19.01H65.4819C65.5147 19.1885 65.5596 19.3578 65.6164 19.5178C65.6731 19.6778 65.7972 19.8009 65.9885 19.8871C66.1798 19.9732 66.4951 19.9948 66.9345 19.9517C67.4247 19.9055 67.8596 19.7901 68.2392 19.6055C68.6218 19.4209 68.9446 19.1624 69.2076 18.83C69.4706 18.4977 69.6694 18.0899 69.8039 17.6068C69.9384 17.1206 70.0042 16.5544 70.0012 15.9081C70.0042 14.9603 69.8637 14.1202 69.5797 13.3878C69.2988 12.6554 68.8923 12.0384 68.3602 11.5368C67.8312 11.0321 67.193 10.6506 66.4458 10.3921C65.7015 10.1305 64.8661 9.9997 63.9395 9.9997C62.9113 9.9997 61.9982 10.1566 61.2001 10.4705C60.4021 10.7844 59.7281 11.2291 59.1781 11.8045C58.6311 12.3769 58.2157 13.057 57.9317 13.8448C57.6477 14.6295 57.5043 15.4958 57.5013 16.4436C57.5043 17.3945 57.6477 18.2438 57.9317 18.9916C58.2157 19.7394 58.6266 20.3748 59.1646 20.898C59.7027 21.4211 60.3573 21.8181 61.1284 22.0889ZM64.5672 17.8007C64.3729 17.9299 64.1039 17.9945 63.7602 17.9945C63.3686 17.9945 63.0593 17.9161 62.8321 17.7591C62.608 17.5991 62.4465 17.3929 62.3479 17.1406C62.2523 16.8852 62.2029 16.6159 62.2 16.3328C62.2029 15.9881 62.2627 15.7004 62.3793 15.4696C62.4989 15.2357 62.6707 15.0603 62.8949 14.9434C63.1221 14.8234 63.3985 14.7634 63.7243 14.7634C64.1159 14.7634 64.4073 14.8372 64.5986 14.9849C64.7929 15.1296 64.9214 15.3204 64.9842 15.5573C65.0499 15.7912 65.0843 16.0435 65.0873 16.3143C65.0963 16.6713 65.0604 16.9759 64.9797 17.2283C64.902 17.4775 64.7645 17.6683 64.5672 17.8007Z" fill="white"/>
</svg>
