<svg width="100%" height="100%" viewBox="0 0 80 80" fill="none" xmlns="http://www.w3.org/2000/svg">
<path d="M10 14.2975C10 11.9238 11.9725 10 14.4063 10H65.5938C68.0275 10 70 11.9238 70 14.2975V65.7025C70 68.0763 68.0275 70 65.5938 70H14.4063C11.9725 70 10 68.0763 10 65.7025V14.2975ZM28.5363 60.2275V33.1338H19.5325V60.2275H28.5363ZM24.0363 29.4325C27.175 29.4325 29.1288 27.355 29.1288 24.7525C29.0725 22.0938 27.1788 20.0725 24.0963 20.0725C21.0138 20.0725 19 22.0975 19 24.7525C19 27.355 20.9538 29.4325 23.9763 29.4325H24.0363ZM42.4413 60.2275V45.0963C42.4413 44.2863 42.5013 43.4763 42.7413 42.8988C43.39 41.2825 44.8713 39.6063 47.3613 39.6063C50.62 39.6063 51.9213 42.0888 51.9213 45.7338V60.2275H60.925V44.6875C60.925 36.3625 56.485 32.4925 50.56 32.4925C45.7825 32.4925 43.6413 35.1175 42.4413 36.9663V37.06H42.3813C42.4012 37.0287 42.4212 36.9974 42.4413 36.9663V33.1338H33.4413C33.5538 35.6763 33.4413 60.2275 33.4413 60.2275H42.4413Z" fill="white"/>
</svg>
