<svg width="51" height="51" viewBox="0 0 51 51" fill="none" xmlns="http://www.w3.org/2000/svg">
<path d="M28.6534 36.1147V31.8848C28.8005 30.56 28.4207 29.2306 27.5959 28.1835C30.7684 28.1835 33.9409 26.0685 33.9409 22.3673C34.0255 21.0454 33.6554 19.7447 32.8834 18.6661C33.1795 17.45 33.1795 16.181 32.8834 14.9648C32.8834 14.9648 31.8259 14.9648 29.7109 16.5511C26.9191 16.0223 24.0427 16.0223 21.2509 16.5511C19.136 14.9648 18.0785 14.9648 18.0785 14.9648C17.7612 16.181 17.7612 17.45 18.0785 18.6661C17.3085 19.7404 16.9347 21.0484 17.021 22.3673C17.021 26.0685 20.1934 28.1835 23.3659 28.1835C22.9535 28.7017 22.6468 29.2939 22.4671 29.9284C22.2873 30.5629 22.2344 31.2291 22.3084 31.8848V36.1147" stroke="#323232" stroke-width="2.11499" stroke-linecap="round" stroke-linejoin="round"/>
<path d="M22.3087 31.8845C17.5394 33.9995 17.0212 29.7695 14.9062 29.7695" stroke="#323232" stroke-width="2.11499" stroke-linecap="round" stroke-linejoin="round"/>
</svg>
