<svg width="51" height="51" viewBox="0 0 51 51" fill="none" xmlns="http://www.w3.org/2000/svg">
<path d="M29.7893 21.3096C31.4721 21.3096 33.086 21.9781 34.2759 23.168C35.4658 24.3579 36.1343 25.9717 36.1343 27.6545V35.057H31.9043V27.6545C31.9043 27.0936 31.6815 26.5557 31.2848 26.159C30.8882 25.7624 30.3502 25.5395 29.7893 25.5395C29.2284 25.5395 28.6904 25.7624 28.2938 26.159C27.8971 26.5557 27.6743 27.0936 27.6743 27.6545V35.057H23.4443V27.6545C23.4443 25.9717 24.1128 24.3579 25.3027 23.168C26.4926 21.9781 28.1065 21.3096 29.7893 21.3096Z" stroke="#323232" stroke-width="2.11499" stroke-linecap="round" stroke-linejoin="round"/>
<path d="M19.2144 22.3672H14.9844V35.0571H19.2144V22.3672Z" stroke="#323232" stroke-width="2.11499" stroke-linecap="round" stroke-linejoin="round"/>
<path d="M17.0994 19.1948C18.2674 19.1948 19.2144 18.2479 19.2144 17.0798C19.2144 15.9118 18.2674 14.9648 17.0994 14.9648C15.9313 14.9648 14.9844 15.9118 14.9844 17.0798C14.9844 18.2479 15.9313 19.1948 17.0994 19.1948Z" stroke="#323232" stroke-width="2.11499" stroke-linecap="round" stroke-linejoin="round"/>
</svg>
