<svg width="51" height="51" viewBox="0 0 51 51" fill="none" xmlns="http://www.w3.org/2000/svg">
<path d="M25.4419 29.7695C27.778 29.7695 29.6719 27.8757 29.6719 25.5395C29.6719 23.2034 27.778 21.3096 25.4419 21.3096C23.1057 21.3096 21.2119 23.2034 21.2119 25.5395C21.2119 27.8757 23.1057 29.7695 25.4419 29.7695Z" stroke="#323232" stroke-width="2.11499" stroke-linecap="round" stroke-linejoin="round"/>
<path d="M29.6721 21.3098V26.5973C29.6721 27.4387 30.0064 28.2456 30.6013 28.8406C31.1963 29.4355 32.0032 29.7698 32.8446 29.7698C33.686 29.7698 34.4929 29.4355 35.0879 28.8406C35.6829 28.2456 36.0171 27.4387 36.0171 26.5973V25.5398C36.0171 23.1576 35.2128 20.8452 33.7344 18.9772C32.256 17.1092 30.1903 15.7951 27.8718 15.2477C25.5533 14.7004 23.1179 14.952 20.9602 15.9616C18.8026 16.9712 17.049 18.6798 15.9836 20.8105C14.9183 22.9413 14.6035 25.3693 15.0904 27.7012C15.5773 30.0331 16.8373 32.1323 18.6663 33.6587C20.4952 35.1851 22.786 36.0493 25.1674 36.1112C27.5488 36.1731 29.8813 35.4291 31.7871 33.9998" stroke="#323232" stroke-width="2.11499" stroke-linecap="round" stroke-linejoin="round"/>
</svg>
