<svg width="247" height="14" viewBox="0 0 247 14" fill="none" xmlns="http://www.w3.org/2000/svg">
<rect x="95.7197" y="2.36914" width="10.7559" height="10.7559" rx="5.37793" fill="#2F2F2F"/>
<rect x="117.843" y="2.36914" width="10.7559" height="10.7559" rx="5.37793" fill="#2F2F2F"/>
<rect x="139.966" y="2.36914" width="10.7559" height="10.7559" rx="5.37793" fill="#2F2F2F"/>
<path d="M162.162 11.7626C162.054 11.9175 161.995 12.1066 162.011 12.2978C162.026 12.489 162.112 12.6653 162.252 12.7901C162.393 12.9149 162.578 12.9797 162.77 12.9723C162.961 12.9651 163.142 12.885 163.283 12.7592C164.317 11.8489 165.469 11.077 166.669 10.3901C171.504 7.69834 176.944 6.07524 182.362 4.85781C184.575 4.38339 186.867 4.01599 188.966 3.99292C206.603 3.21476 222.8 12.6733 241.457 12.7808C242.953 12.6646 244.438 12.4148 245.883 12.0049C246.071 11.9514 246.234 11.8294 246.335 11.6607C246.435 11.4921 246.466 11.2915 246.42 11.102C246.374 10.9124 246.254 10.7485 246.087 10.6453C245.92 10.542 245.719 10.5087 245.528 10.5476C244.161 10.824 242.774 10.9521 241.379 10.9602C224.162 9.75962 207.642 -0.543342 188.967 0.0227067C186.348 0.0355871 183.924 0.438029 181.515 0.94854C175.683 2.25865 169.983 4.53893 165.284 8.43051C164.124 9.41472 163.046 10.5182 162.162 11.7626Z" fill="#2F2F2F"/>
<path d="M84.2793 11.7626C84.3877 11.9175 84.4461 12.1066 84.4308 12.2978C84.4156 12.489 84.3295 12.6653 84.1891 12.7901C84.0487 12.9149 83.8635 12.9797 83.6719 12.9723C83.4802 12.9651 83.2992 12.885 83.1582 12.7592C82.1246 11.8489 80.9728 11.077 79.772 10.3901C74.9374 7.69834 69.497 6.07524 64.0791 4.85781C61.8664 4.38339 59.5746 4.01599 57.4752 3.99292C39.8382 3.21476 23.6418 12.6733 4.98416 12.7808C3.48812 12.6646 2.00311 12.4148 0.558403 12.0049C0.370628 11.9514 0.207756 11.8294 0.106865 11.6607C0.00596619 11.4921 -0.0248871 11.2915 0.0213318 11.102C0.0675507 10.9124 0.187317 10.7485 0.354507 10.6453C0.521713 10.542 0.72245 10.5087 0.913811 10.5476C2.28072 10.824 3.66744 10.9521 5.0627 10.9602C22.279 9.75962 38.7996 -0.543342 57.4749 0.0227067C60.0938 0.0355871 62.5179 0.438029 64.9262 0.94854C70.758 2.25865 76.4581 4.53893 81.1577 8.43051C82.3176 9.41472 83.3951 10.5182 84.2793 11.7626Z" fill="#2F2F2F"/>
</svg>
